<?xml version="1.0" standalone="no"?>
<!DOCTYPE svg PUBLIC "-//W3C//DTD SVG 20010904//EN"
 "http://www.w3.org/TR/2001/REC-SVG-20010904/DTD/svg10.dtd">
<svg version="1.0" xmlns="http://www.w3.org/2000/svg"
 width="512.000000pt" height="512.000000pt" viewBox="0 0 512.000000 512.000000"
 preserveAspectRatio="xMidYMid meet">

<g transform="translate(0.000000,512.000000) scale(0.100000,-0.100000)"
fill="#000000" stroke="none">
<path d="M1645 4956 c-71 -32 -95 -83 -95 -201 l0 -84 -382 -3 -383 -3 -57
-28 c-89 -44 -161 -116 -205 -205 l-38 -76 -3 -1915 c-3 -2144 -9 -1981 69
-2101 45 -69 134 -140 212 -167 49 -17 123 -18 1502 -18 l1450 0 97 27 c335
92 593 307 734 613 105 226 123 529 47 770 -55 174 -167 352 -299 474 -74 70
-227 174 -281 192 l-33 11 0 991 c0 577 -5 1023 -10 1067 -19 145 -108 269
-239 333 l-66 32 -380 5 -380 5 -5 97 c-5 104 -16 129 -74 172 -27 21 -39 21
-589 23 -453 2 -568 0 -592 -11z m1123 -118 c17 -17 17 -389 0 -406 -17 -17
-1069 -17 -1086 0 -17 17 -17 389 0 406 17 17 1069 17 1086 0z m-1216 -361 c3
-62 8 -80 30 -110 53 -69 47 -68 665 -65 542 3 552 3 580 24 54 40 73 80 73
156 l0 69 373 -3 c363 -3 373 -4 414 -25 59 -32 111 -88 142 -153 l26 -55 3
-999 c1 -550 1 -1005 -2 -1012 -3 -9 -19 -8 -68 3 -35 8 -99 18 -143 21 l-80
7 -2 885 -3 885 -21 18 c-20 16 -97 17 -1313 17 -1153 0 -1294 -2 -1314 -16
l-22 -15 0 -1694 c0 -1526 2 -1695 16 -1709 14 -14 105 -16 858 -16 l842 0 50
-72 c84 -124 199 -228 370 -335 15 -9 -224 -12 -1072 -12 -1214 -1 -1150 -5
-1241 67 -27 22 -61 62 -78 93 l-30 54 -3 1910 c-3 2175 -11 1967 87 2066 88
87 87 87 502 88 l357 1 4 -73z m1888 -1301 l0 -844 -42 -7 c-226 -36 -435
-138 -597 -290 -176 -166 -297 -398 -331 -634 -25 -166 2 -411 59 -543 l20
-48 -769 0 -770 0 0 1605 0 1605 1215 0 1215 0 0 -844z m308 -982 c299 -62
574 -285 692 -562 62 -145 75 -212 75 -387 0 -136 -3 -172 -23 -244 -40 -147
-120 -295 -220 -410 l-39 -44 -41 61 c-167 245 -469 373 -754 318 -209 -40
-400 -168 -504 -337 -20 -32 -40 -59 -44 -59 -10 0 -96 100 -144 166 -50 71
-110 203 -136 299 -27 100 -37 290 -21 395 61 394 370 721 761 804 91 20 303
20 398 0z m7 -1404 c136 -42 262 -136 340 -253 21 -31 35 -63 32 -71 -9 -23
-151 -102 -245 -136 -161 -58 -331 -74 -495 -45 -132 23 -290 85 -367 145
l-25 19 29 56 c75 146 246 264 437 305 68 14 215 4 294 -20z"/>
<path d="M1260 3782 c-39 -40 -42 -69 -38 -422 3 -333 5 -342 64 -368 35 -17
673 -17 708 0 59 26 61 35 64 368 4 353 1 382 -38 422 l-28 28 -352 0 -352 0
-28 -28z m680 -387 l0 -295 -300 0 -300 0 0 295 0 295 300 0 300 0 0 -295z"/>
<path d="M1678 3473 l-89 -88 -35 43 c-40 47 -72 54 -104 22 -30 -30 -25 -51
30 -123 57 -75 90 -101 118 -93 32 11 252 241 252 264 0 28 -34 62 -61 62 -14
0 -55 -33 -111 -87z"/>
<path d="M2192 3574 c-26 -18 -30 -65 -6 -88 14 -14 77 -16 543 -16 559 0 551
-1 566 47 4 17 -1 29 -19 48 l-25 25 -518 0 c-453 0 -521 -2 -541 -16z"/>
<path d="M2182 3268 c-18 -18 -15 -73 5 -89 13 -12 111 -14 544 -14 479 0 530
2 545 17 20 19 22 62 4 83 -11 13 -84 15 -549 15 -404 0 -540 -3 -549 -12z"/>
<path d="M1285 2815 c-59 -30 -60 -32 -63 -365 -4 -353 -1 -382 38 -422 l28
-28 352 0 352 0 28 28 c39 40 42 69 38 422 -3 334 -4 336 -64 365 -47 22 -664
22 -709 0z m653 -402 l2 -293 -300 0 -300 0 0 288 c0 159 3 292 7 295 4 4 137
6 297 5 l291 -3 3 -292z"/>
<path d="M1770 2572 c-8 -2 -53 -42 -100 -88 l-85 -84 -24 36 c-32 46 -66 60
-97 40 -40 -27 -40 -53 2 -113 55 -80 89 -113 116 -113 17 0 57 34 146 123 67
68 122 130 122 138 0 37 -45 72 -80 61z"/>
<path d="M2186 2584 c-24 -23 -20 -70 6 -88 20 -14 88 -16 539 -16 484 0 518
1 539 18 13 11 23 29 23 45 0 59 23 57 -559 57 -471 0 -534 -2 -548 -16z"/>
<path d="M2187 2282 c-24 -26 -21 -68 5 -86 19 -14 67 -16 318 -16 326 0 340
2 340 59 0 60 -6 61 -342 61 -283 0 -306 -1 -321 -18z"/>
<path d="M1260 1812 c-19 -19 -31 -44 -35 -73 -3 -24 -5 -182 -3 -351 l3 -308
33 -32 32 -33 350 0 350 0 32 33 33 32 3 308 c2 169 0 327 -3 351 -5 29 -16
54 -35 73 l-28 28 -352 0 -352 0 -28 -28z m678 -384 l-3 -293 -295 0 -295 0
-3 293 -2 292 300 0 300 0 -2 -292z"/>
<path d="M1678 1503 l-87 -87 -36 42 c-44 51 -85 57 -111 16 -16 -23 -16 -28
-1 -57 8 -18 36 -58 61 -89 71 -89 83 -86 228 61 124 124 135 144 98 181 -36
36 -60 26 -152 -67z"/>
<path d="M2187 1602 c-22 -24 -21 -65 1 -85 14 -13 37 -17 88 -17 75 0 85 4
103 38 9 17 9 27 0 45 -18 33 -28 37 -105 37 -56 0 -74 -4 -87 -18z"/>
<path d="M2192 1304 c-14 -10 -22 -26 -22 -44 0 -47 22 -60 100 -60 78 0 100
13 100 60 0 41 -32 60 -100 60 -34 0 -64 -6 -78 -16z"/>
<path d="M3480 1651 c-88 -27 -174 -103 -211 -186 -34 -74 -33 -181 2 -255 56
-121 143 -181 270 -188 143 -8 250 52 311 175 65 132 38 274 -70 375 -78 73
-209 107 -302 79z m165 -130 c147 -67 163 -266 28 -352 -143 -90 -333 30 -309
195 20 131 163 211 281 157z"/>
</g>
</svg>
