<svg xmlns="http://www.w3.org/2000/svg" width="40" height="40" viewBox="0 0 40 40" fill="none">
<path d="M36.0669 21.6666C35.8263 21.4677 35.5347 21.3404 35.2253 21.2992C34.9159 21.2579 34.6012 21.3044 34.3169 21.4333C32.5545 22.2397 30.6383 22.6548 28.7002 22.6499C25.115 22.6456 21.6768 21.224 19.1355 18.6951C16.5941 16.1662 15.1556 12.7351 15.1336 9.14993C15.1412 8.02631 15.281 6.9075 15.5502 5.81659C15.6074 5.52582 15.5859 5.22508 15.4882 4.94535C15.3904 4.66562 15.2198 4.41701 14.994 4.22515C14.7681 4.03328 14.4952 3.90509 14.2034 3.85378C13.9115 3.80248 13.6113 3.82991 13.3336 3.93326C10.7208 5.10811 8.44951 6.92786 6.73316 9.22157C5.0168 11.5153 3.91169 14.2076 3.52164 17.0457C3.13159 19.8838 3.4694 22.7745 4.50334 25.4462C5.53728 28.1179 7.23341 30.4829 9.43239 32.319C11.6314 34.1552 14.261 35.4022 17.0743 35.9429C19.8876 36.4837 22.7922 36.3004 25.5151 35.4103C28.2381 34.5202 30.6902 32.9525 32.6409 30.8545C34.5916 28.7565 35.977 26.1971 36.6669 23.4166C36.7509 23.0983 36.7388 22.7622 36.632 22.4507C36.5252 22.1393 36.3286 21.8664 36.0669 21.6666ZM20.2336 32.8166C17.4365 32.7969 14.7139 31.913 12.4385 30.2861C10.1632 28.6593 8.44633 26.3688 7.52303 23.7285C6.59973 21.0881 6.51512 18.2269 7.28079 15.5366C8.04646 12.8463 9.62499 10.4584 11.8002 8.69993V9.14993C11.8046 13.6307 13.5866 17.9268 16.755 21.0952C19.9234 24.2636 24.2194 26.0455 28.7002 26.0499C29.8767 26.0542 31.0502 25.9313 32.2002 25.6833C31.0501 27.8591 29.3277 29.6797 27.2188 30.9485C25.11 32.2173 22.6947 32.8863 20.2336 32.8833V32.8166Z" fill="#000000"/>
</svg>