<?xml version="1.0" standalone="no"?>
<!DOCTYPE svg PUBLIC "-//W3C//DTD SVG 20010904//EN"
 "http://www.w3.org/TR/2001/REC-SVG-20010904/DTD/svg10.dtd">
<svg version="1.0" xmlns="http://www.w3.org/2000/svg"
 width="512.000000pt" height="512.000000pt" viewBox="0 0 512.000000 512.000000"
 preserveAspectRatio="xMidYMid meet">

<g transform="translate(0.000000,512.000000) scale(0.100000,-0.100000)"
fill="#000000" stroke="none">
<path d="M2370 5110 c-381 -53 -708 -247 -937 -556 -239 -324 -322 -763 -218
-1153 104 -387 375 -717 731 -889 l82 -39 -117 -32 c-909 -249 -1608 -1049
-1735 -1986 -25 -191 -30 -335 -13 -378 28 -66 104 -94 168 -62 46 25 69 70
69 141 0 99 20 271 46 402 34 169 92 340 174 507 115 236 230 397 419 585 327
326 703 519 1176 606 144 27 547 27 690 0 477 -87 847 -278 1176 -606 391
-390 607 -875 635 -1430 7 -139 18 -171 67 -200 64 -39 145 -12 174 58 24 57
6 295 -38 522 -174 881 -867 1621 -1733 1847 -58 15 -106 30 -106 33 0 3 33
22 74 42 261 130 479 346 611 608 51 102 81 185 113 310 24 95 26 123 27 300
0 150 -4 214 -18 277 -58 268 -172 484 -360 679 -195 203 -436 338 -704 394
-112 24 -351 34 -453 20z m362 -255 c279 -48 537 -206 709 -434 59 -79 138
-231 167 -321 163 -503 -35 -1035 -487 -1314 -383 -236 -886 -211 -1251 61
-75 56 -198 183 -251 260 -69 100 -135 242 -166 360 -24 89 -27 115 -27 283 0
204 10 258 77 425 116 290 369 528 677 637 154 55 383 73 552 43z"/>
<path d="M2072 873 c-62 -30 -83 -124 -40 -178 42 -54 54 -55 475 -55 357 0
391 1 422 18 35 19 71 72 71 105 0 36 -30 87 -62 107 -32 19 -49 20 -433 20
-349 0 -404 -3 -433 -17z"/>
</g>
</svg>
